# xmcd
#
# Track frame offsets: 
#        150
#        12438
#        29431
#        46920
#        66786
#        84170
#        99478
#        121095
#        136455
#        149751
#
# Disc length: 2176 seconds
#
# Revision: 0
# Processed by: cddbd v1.5.2PL0 Copyright (c) Steve Scherf et al.
# Submitted via: ExactAudioCopy v1.0b1
#
DISCID=84087e0a
DTITLE=Priscilla McGruder - Now
DYEAR=2004
DGENRE=
TTITLE0=It's Never Too Late For A Miracle
TTITLE1=Don't Give Up On Him
TTITLE2=One Prayer Away
TTITLE3=Shine On Me, Son Of Righteousness
TTITLE4=Under The Blood, You'll Get Over The Storm
TTITLE5=All Of My Afflictions, All Of My Disease
TTITLE6=We Have A Savior
TTITLE7=More Than Table Grace
TTITLE8=Mighty God
TTITLE9=Dance In Advance
EXTD=
EXTT0=
EXTT1=
EXTT2=
EXTT3=
EXTT4=
EXTT5=
EXTT6=
EXTT7=
EXTT8=
EXTT9=
PLAYORDER=
